<?xml version="1.0" encoding="UTF-8" standalone="no"?>
<svg
   xmlns:dc="http://purl.org/dc/elements/1.1/"
   xmlns:cc="http://creativecommons.org/ns#"
   xmlns:rdf="http://www.w3.org/1999/02/22-rdf-syntax-ns#"
   xmlns:svg="http://www.w3.org/2000/svg"
   xmlns="http://www.w3.org/2000/svg"
   version="1.1"
   id="theBrain"
   viewBox="0 0 338.89947 388.15418"
   height="388.15417"
   width="338.89948">
  <defs
     id="defs4">
    <filter
       id="filter4266"
       style="color-interpolation-filters:sRGB">
      <feOffset
         id="feOffset4268"
         dx="3"
         dy="3"/>
      <feGaussianBlur
         id="feGaussianBlur4270"
         result="blur"
         stdDeviation="3">
		<animate id="animation1"
             attributeName="stdDeviation"
             from="3" to="5" dur="2.5s" fill="freeze"
             begin="0s;animation2.end" />
		<animate id="animation2"
             attributeName="stdDeviation"
             from="5" to="3" dur="2.5s" fill="freeze"
             begin="animation1.end" />	   
		 
		 </feGaussianBlur>
      <feFlood
         id="feFlood4272"
         result="flood"
         flood-opacity="1"
         flood-color="rgb(255,0,0)">
		<animate id="animation6"
             attributeName="flood-color"
             from="#000" to="#248" dur="7s" fill="freeze"
             begin="0s;animation7.end" />
		<animate id="animation7"
             attributeName="flood-color"
             from="#248" to="#000" dur="7s" fill="freeze"
             begin="animation6.end" />	   
	  </feFlood>
      <feComposite
         id="feComposite4274"
         result="composite"
         operator="in"
         in2="SourceGraphic"
         in="flood" />
      <feBlend
         id="feBlend4276"
         mode="normal"
         in2="composite"
         in="blur" />
    </filter>
  </defs>
  <metadata
     id="metadata7">
    <rdf:RDF>
      <cc:Work
         rdf:about="">
        <dc:format>image/svg+xml</dc:format>
        <dc:type
           rdf:resource="http://purl.org/dc/dcmitype/StillImage" />
        <dc:title></dc:title>
      </cc:Work>
    </rdf:RDF>
  </metadata>
  <g
     transform="translate(-125.38398,-96.01117)"
     id="layer1">
    <path
       id="path4175"
       d="m 271.72292,450.81876 c -4.75517,-0.85431 -6.00503,-1.21023 -10.46678,-2.98053 -5.02466,-1.99362 -5.12068,-2.01783 -11.55,-2.91183 -7.0356,-0.97827 -7.86745,-1.19535 -8.71636,-2.27457 -0.30954,-0.39351 -0.60871,-0.5856 -0.66483,-0.42687 -0.0561,0.15873 -2.05953,-0.80013 -4.45203,-2.13078 -2.3925,-1.33065 -7.14847,-3.74754 -10.56882,-5.37087 -3.42035,-1.6233 -9.28435,-4.60296 -13.0311,-6.62145 -6.09095,-3.28137 -7.21498,-4.01082 -10.61533,-6.88884 -2.09167,-1.77036 -3.87249,-3.39981 -3.95736,-3.62097 -0.32658,-0.85107 -4.6437,-6.81848 -6.79571,-9.39351 -4.5214,-5.41014 -10.29693,-11.4819 -14.2682,-15 -3.48749,-3.08953 -4.47022,-4.17427 -6.93053,-7.65 -3.85394,-5.44451 -5.80363,-9.95544 -7.04778,-16.30624 -0.48016,-2.45093 -0.91291,-4.74593 -0.96168,-5.1 -0.0488,-0.35406 -0.17635,-0.78317 -0.2835,-0.95357 -0.10715,-0.1704 -1.13399,-2.1279 -2.28187,-4.35 l -2.08705,-4.04019 -0.33796,-4.80929 c -0.24914,-3.54548 -0.25007,-5.47695 -0.003,-7.35 0.35869,-2.72479 1.16656,-4.49071 2.05441,-4.49071 0.72721,0 2.11599,-1.13155 2.11599,-1.72406 0,-0.39122 -0.12904,-0.35929 -0.69434,0.17177 -1.00881,0.94774 -1.53542,0.86338 -0.99919,-0.16006 0.35409,-0.6758 0.35939,-0.91535 0.0315,-1.425 -0.21676,-0.33696 -0.80899,-2.90781 -1.31605,-5.71302 -1.14811,-6.35166 -1.22055,-9.94729 -0.26577,-13.19257 l 0.65617,-2.23031 -1.48649,-1.58837 -1.48648,-1.58837 -0.84359,-4.95 -0.84359,-4.95 0.64284,-3 c 0.35355,-1.65 0.71572,-3.4725 0.80482,-4.05 0.0891,-0.5775 0.78157,-2.51454 1.53882,-4.30454 1.34601,-3.18172 1.44341,-3.31695 4.35386,-6.04501 l 2.97705,-2.79048 -2.11638,-2.98495 -2.11638,-2.98495 -0.0236,-6.18282 -0.0236,-6.18282 1.86208,-3.93776 1.86208,-3.93775 2.63032,-1.32103 2.63031,-1.32102 0.10475,-5.47844 c 0.11653,-6.09391 0.37052,-7.36426 2.64664,-13.23738 1.32773,-3.42597 2.13743,-4.44628 7.12889,-8.98312 l 2.20461,-2.00381 0.23417,-5.17706 0.23418,-5.17706 2.21121,-5.65179 2.21122,-5.65178 4.01258,-3.49822 c 2.20691,-1.92402 4.20507,-3.65314 4.44034,-3.8425 0.23527,-0.18936 1.28045,-2.60696 2.32263,-5.37244 1.52898,-4.05725 2.17683,-5.38105 3.35509,-6.85571 0.80313,-1.00516 1.53264,-1.89506 1.62112,-1.97756 0.0885,-0.0825 1.01264,-1.23 2.05366,-2.55 l 1.89277,-2.4 7.69657,-3.9 7.69657,-3.9 1.05434,-2.5153 c 0.98125,-2.34094 1.35058,-2.82161 5.32827,-6.93441 3.81257,-3.94209 4.46026,-4.48547 6,-5.03376 7.74821,-2.75906 9.6081,-3.5243 12.37606,-5.09207 1.7325,-0.98129 4.77,-2.71068 6.75,-3.8431 1.98,-1.13241 4.6125,-2.57962 5.85,-3.21601 1.2375,-0.6364 2.7225,-1.47281 3.3,-1.8587 1.00098,-0.66885 1.42443,-0.71595 9.07094,-1.00888 l 8.02093,-0.30727 5.29882,2.55004 c 2.91435,1.40252 5.37993,2.42338 5.47906,2.26858 0.0991,-0.15481 1.53025,-2.31543 3.18025,-4.8014 l 3,-4.51993 4.47913,-1.71449 4.47913,-1.7145 4.75463,0.84305 4.75463,0.84305 5.44944,3.08491 c 6.02323,3.40971 5.29026,3.19984 12.53304,3.58855 3.4281,0.18398 3.45952,0.19248 4.95,1.33896 0.825,0.63459 1.77057,1.39879 2.10127,1.69824 0.3307,0.29944 1.5457,1.3062 2.7,2.23723 2.76647,2.23139 4.34872,3.71866 4.34872,4.08768 0,0.32676 0.9398,0.68268 2.0608,0.78047 0.39094,0.0341 0.95205,0.35994 1.24691,0.72408 0.49284,0.60862 0.71398,0.64748 2.73921,0.48127 2.04008,-0.16743 2.60263,-0.0655 7.60308,1.37757 2.97,0.85711 5.73197,1.77072 6.13769,2.03025 0.40574,0.25953 2.58276,2.27672 4.83784,4.48265 l 4.10014,4.01077 1.855,5.31623 1.8549,5.31624 6.2072,3.58615 6.2072,3.58616 4.4802,4.70051 4.4803,4.7005 0.6702,2.51334 c 0.3686,1.38234 1.3737,5.16387 2.2335,8.40341 l 1.5634,5.89007 2.5404,3.53572 c 2.3308,3.24387 2.6214,3.81055 3.5202,6.86527 0.7136,2.42505 0.9942,4.00726 1.033,5.82433 0.052,2.42767 0.1014,2.58563 1.8414,5.8702 1.637,3.08997 1.8264,3.6473 2.2396,6.59073 0.2482,1.76842 0.3692,3.54266 0.2687,3.94275 -0.1535,0.61174 0.2848,1.24144 2.7559,3.95915 1.6161,1.77744 3.0605,3.31525 3.2098,3.41735 0.3886,0.26574 1.3382,4.54269 1.5574,7.01436 0.1024,1.155 0.2582,2.39034 0.3462,2.74521 0.1467,0.59205 -0.321,4.64435 -0.6788,5.88044 -0.1051,0.36275 0.5832,1.29352 2.2207,3.00346 2.3035,2.40523 2.3841,2.53921 2.7504,4.57435 0.2076,1.15309 0.5732,2.8846 0.8125,3.8478 0.3999,1.60978 0.3854,1.99488 -0.1799,4.76677 -0.3383,1.65853 -0.6151,3.27333 -0.6151,3.58845 0,0.31511 0.8775,2.42967 1.95,4.699 l 1.95,4.12607 0,5.01556 0,5.01557 -1.2,3.55132 c -0.66,1.95323 -1.2,3.7227 -1.2,3.93216 0,0.20946 1.3015,2.14763 2.8921,4.30705 1.5906,2.15941 2.9994,4.33584 3.1306,4.8365 0.4418,1.68596 0.8405,11.61652 0.5424,13.51028 -0.7433,4.72215 -2.1357,9.17848 -4.9017,15.68717 -2.3625,5.55908 -3.1437,7.07465 -4.6513,9.02359 -0.9967,1.28828 -1.8121,2.49914 -1.8121,2.69079 0,0.19165 -0.1116,0.34845 -0.248,0.34845 -0.1364,0 -0.1966,0.37125 -0.1338,0.825 0.063,0.45375 -0.2254,3.57005 -0.6406,6.9251 l -0.755,6.10011 -3.4758,8.38324 c -3.361,8.10618 -3.5908,8.55401 -6.953,13.5499 -2.2134,3.28878 -4.377,6.09348 -5.9528,7.71665 -2.4267,2.49967 -2.4854,2.5955 -2.9744,4.85537 -0.2743,1.26795 -0.6603,2.37104 -0.8577,2.45131 -0.2518,0.10242 -0.2564,0.15302 -0.015,0.16964 0.5133,0.0354 0,1.94732 -0.8717,3.26765 -0.4031,0.60832 -1.8249,2.64476 -3.1594,4.52543 l -2.4265,3.4194 -4.2929,2.4042 c -2.3611,1.32231 -4.5179,2.42397 -4.7928,2.44809 -0.275,0.0243 -0.6894,0.20109 -0.9209,0.39318 -0.2314,0.19212 -2.504,0.82452 -5.05,1.40538 -2.546,0.58086 -5.053,1.25028 -5.5711,1.48761 -0.5181,0.23733 -2.8806,1.69509 -5.25003,3.23943 -5.29367,3.45033 -8.52454,5.45097 -13.70385,8.48574 -3.85197,2.25702 -4.25067,2.41518 -11.07499,4.39305 -6.64363,1.92552 -7.54212,2.10855 -14.60418,2.97492 -4.91204,0.60261 -8.15004,0.86322 -9.32501,0.75051 -0.99,-0.0949 -3.4875,-0.24228 -5.55,-0.32742 -3.62314,-0.14952 -3.92938,-0.21636 -9.0525,-1.97553 l -5.3025,-1.82073 -4.71911,3.17637 c -2.5955,1.74702 -4.83313,3.1764 -4.9725,3.1764 -0.13937,0 -0.25339,0.11898 -0.25339,0.26439 0,0.31749 -1.2339,0.63816 -7.69037,1.99854 -2.70706,0.57039 -5.35792,1.02366 -5.89078,1.00725 -0.53287,-0.0165 -3.39885,-0.46638 -6.36885,-0.99996 z m 12.45,-4.18221 c 1.4025,-0.41151 3.53968,-1.03611 4.74929,-1.38804 1.77826,-0.51735 2.52657,-0.93756 3.90881,-2.19492 4.64266,-4.22319 7.00992,-6.33864 7.46823,-6.67377 0.42496,-0.31074 1.34552,0.0521 5.83595,2.29989 l 5.33141,2.66883 7.57815,0 7.57816,0 11.25,-1.92027 11.24999,-1.9203 5.85,-3.23022 c 5.12843,-2.83182 11.15942,-6.88785 15.88894,-10.68582 0.69993,-0.56208 3.252,-1.57197 7.8215,-3.09507 l 6.7825,-2.26074 3.5785,-2.64416 c 2.1552,-1.59246 4.5033,-3.66543 5.9036,-5.21183 1.2787,-1.41222 2.325,-2.63344 2.325,-2.71383 0,-0.0804 -2.0133,0.92258 -4.4739,2.22881 -3.995,2.12074 -5.0948,2.54941 -10.275,4.00486 -5.0557,1.42047 -6.5359,1.70464 -11.51917,2.21146 l -5.71803,0.58158 -3.88197,3.86298 c -4.80803,4.78452 -5.56377,5.38296 -10.78197,8.53785 -4.17278,2.52285 -4.24041,2.55039 -10.43677,4.25169 -3.85989,1.05978 -7.86153,1.93938 -10.5,2.30799 -2.34477,0.3276 -4.56697,0.64467 -4.93822,0.70464 -0.37125,0.0599 -0.675,0.0105 -0.675,-0.10989 0,-0.22782 3.16612,-1.19259 4.31611,-1.3152 0.3626,-0.0387 0.78856,-0.14922 0.94658,-0.24567 0.15802,-0.0965 1.90731,-0.61575 3.88731,-1.15398 2.61691,-0.71136 4.91079,-1.62915 8.4,-3.36084 2.63999,-1.31025 5.13749,-2.69892 5.54999,-3.08595 0.4125,-0.38703 1.54447,-1.05489 2.51549,-1.4841 2.01784,-0.89199 4.19799,-2.95551 5.20659,-4.92804 0.37286,-0.72921 0.67792,-1.44867 0.67792,-1.59882 0,-0.42744 -1.78064,0.064 -3.66644,1.0119 -0.94405,0.47451 -1.858,0.86277 -2.03101,0.86277 -0.17301,0 -1.42561,0.52425 -2.78356,1.16499 -1.37412,0.64839 -3.20067,1.25637 -4.11898,1.37103 -7.88625,0.98475 -10.47366,0.98415 -16.98746,-0.004 -2.7844,-0.4224 -8.63212,-1.5024 -12.99494,-2.4 -4.36282,-0.89922 -8.09773,-1.63362 -8.29979,-1.63362 -0.20207,0 -0.79711,0.54255 -1.32232,1.2057 -0.83013,1.04811 -1.00623,1.59825 -1.34748,4.20954 l -0.39255,3.00384 1.47968,2.81067 1.47968,2.8107 3.06759,1.82628 c 1.68718,1.00446 2.9081,1.82784 2.71316,1.82976 -0.19493,0.003 -2.44471,-0.65232 -4.99952,-1.45389 -3.99805,-1.25439 -4.95161,-1.67913 -6.84557,-3.0492 -2.61018,-1.88817 -2.64,-1.92615 -2.64589,-3.3684 -0.004,-1.06881 -0.0533,-1.12488 -0.97959,-1.12254 -0.53625,0 -2.1225,0.13362 -3.525,0.29391 -3.12411,0.35706 -14.21154,1.20561 -15.45,1.18245 -1.45786,-0.0273 -0.3138,-0.3597 6.6,-1.91769 5.73022,-1.29126 6.48993,-1.53786 8.4,-2.7264 4.89663,-3.04692 4.95515,-3.10161 5.76496,-5.38473 1.47202,-4.15017 1.44102,-3.94309 0.84397,-5.6384 -0.30248,-0.85888 -0.59577,-1.61664 -0.65177,-1.68392 -0.056,-0.0673 -0.89761,0.56985 -1.87027,1.41584 -2.17198,1.88914 -1.96176,1.79738 -8.73689,3.81347 -12.27856,3.65379 -15.10988,4.92279 -18.975,8.50458 l -1.425,1.32054 0,2.18013 c 0,1.9428 0.11638,2.38737 1.06904,4.08393 0.58797,1.04712 1.29672,2.12793 1.575,2.40186 0.27828,0.2739 2.24718,0.99276 4.37533,1.59744 l 3.86937,1.09941 6.10554,-0.0195 6.10555,-0.0195 2.70008,-1.35609 c 1.48505,-0.74583 2.69363,-1.25346 2.68572,-1.12803 -0.008,0.1254 -1.351,1.173 -2.98465,2.328 -2.90616,2.05467 -3.30547,2.21823 -6.56238,2.68824 -0.59873,0.0864 -2.149,0.35613 -3.44504,0.59943 -1.29604,0.24327 -2.84854,0.5085 -3.45,0.58938 -0.60146,0.0809 -1.97377,0.3027 -3.04958,0.49293 -1.89772,0.33555 -2.10787,0.30492 -7.05,-1.02792 -2.80169,-0.75558 -6.84491,-2.0529 -8.98494,-2.88291 l -3.89096,-1.50891 -5.58158,0 c -4.23057,0 -6.41117,-0.14481 -9.00903,-0.59829 -1.88511,-0.32907 -3.74146,-0.64983 -4.12522,-0.71277 -1.09491,-0.17958 -0.50644,0.21153 4.17731,2.77632 l 4.37957,2.39823 6.72854,0.45603 6.72854,0.456 6.11959,2.11224 c 3.36577,1.16172 6.50088,2.11224 6.9669,2.11224 0.46601,0 0.8473,0.10788 0.8473,0.23976 0,0.13188 0.43875,0.19701 0.975,0.14475 0.53625,-0.0522 2.46,0.0919 4.275,0.32025 3.69885,0.46542 3.29805,0.49608 6.75,-0.51675 z m -35.31343,-15.70032 c 0.81394,-0.16278 0.63894,-0.25356 -1.43009,-0.74178 -1.29663,-0.30597 -2.50353,-0.67014 -2.682,-0.80931 -0.17846,-0.13917 -0.84325,-0.2682 -1.47731,-0.28674 -0.63406,-0.0186 -1.56171,-0.23766 -2.06144,-0.48696 -0.49973,-0.2493 -1.02409,-0.3819 -1.16525,-0.29466 -0.59363,0.3669 -3.01902,-0.68295 -9.04113,-3.9135 -6.3737,-3.41919 -6.39459,-3.43368 -9.38363,-6.5175 -1.67297,-1.72599 -3.60021,-4.0835 -4.36475,-5.33918 l -1.36902,-2.2485 -7.03098,-1.57235 c -8.34471,-1.86615 -11.87556,-2.56663 -12.24145,-2.42856 -0.14773,0.0557 0.5592,1.58138 1.57095,3.39029 1.9691,3.5206 2.02247,3.5754 8.88953,9.12731 2.64661,2.13975 5.81672,4.14501 13.35,8.44455 2.84425,1.62333 3.23363,1.75536 7.5,2.54271 2.475,0.45675 5.31,1.00698 6.3,1.22271 1.81337,0.39519 12.54253,0.33027 14.63657,-0.0885 z m 8.22103,-7.45818 c 2.30225,-0.54396 4.18269,-1.27059 7.22717,-2.79264 6.40725,-3.20319 6.8958,-3.40509 22.56523,-9.32434 4.83111,-1.82499 4.99891,-1.91785 6.98638,-3.86621 1.12001,-1.09798 2.11453,-2.33382 2.21004,-2.74632 0.0955,-0.4125 0.76543,-1.87905 1.4887,-3.25901 l 1.31504,-2.50902 -0.65183,-1.15976 c -0.54832,-0.9756 -0.72475,-1.10121 -1.11104,-0.79099 -0.25257,0.20283 -2.01803,1.77128 -3.92326,3.48544 -1.90521,1.71416 -3.73403,3.28811 -4.06403,3.49768 -0.33,0.20956 -3.3,1.13626 -6.6,2.05934 l -6,1.67832 -7.35,-0.0106 -7.35,-0.0106 -5.1,-1.23887 -5.1,-1.23888 -3.98316,1.24039 -3.98316,1.24039 -6.21485,-0.46499 -6.21485,-0.465 -2.40298,-1.70192 c -1.32164,-0.93606 -2.98436,-2.09713 -3.69492,-2.58016 -0.71057,-0.48302 -1.44006,-1.15802 -1.62108,-1.5 -0.18103,-0.34197 -0.92766,-1.53302 -1.65918,-2.64677 l -1.33004,-2.025 -4.59191,0 c -4.56154,0 -4.63488,-0.0108 -11.09217,-1.63001 l -6.50026,-1.63001 -5.00572,-2.8698 -5.00572,-2.86981 -3.56632,-4.31042 -3.56632,-4.31042 -2.95034,-0.82398 c -1.62269,-0.45319 -3.10439,-1.0096 -3.29267,-1.23647 -0.18828,-0.22686 -0.44835,-0.34695 -0.57793,-0.26687 -0.12957,0.0801 -1.31499,-0.4614 -2.63425,-1.2033 -1.31926,-0.74191 -2.48789,-1.34892 -2.59695,-1.34892 -0.10907,0 0.77306,1.89386 1.96029,4.20857 1.47799,2.88162 3.12871,5.49141 5.2354,8.27718 l 3.07681,4.06861 5.05614,3.43628 c 2.78088,1.88995 5.66364,4.02779 6.40614,4.75075 1.08939,1.06072 2.19727,1.6592 5.73893,3.10018 l 4.38893,1.7857 8.00607,0.86137 8.00607,0.86136 2.72989,4.5 c 1.50145,2.475 2.94322,4.7499 3.20394,5.05532 0.26072,0.30543 2.42463,1.83835 4.80869,3.40648 4.29256,2.82345 4.38435,2.86581 9.45107,4.35906 2.81403,0.82932 6.06141,1.59363 7.21641,1.69842 3.96996,0.36024 9.32742,0.0471 12.6576,-0.73977 z m 78.0924,-2.9892 c 1.4025,-0.25236 3.97995,-0.71226 5.72766,-1.02198 2.86768,-0.5082 3.49688,-0.7464 6.45,-2.44188 6.7822,-3.89389 9.98789,-6.27364 13.45853,-9.99095 1.78463,-1.91147 3.43833,-3.84892 3.67489,-4.30545 0.23656,-0.45653 1.10014,-2.0697 1.91905,-3.58482 l 1.48894,-2.75477 -0.91238,-3.61392 c -0.5018,-1.98766 -0.94066,-3.95574 -0.97524,-4.37351 -0.0352,-0.42495 -0.56256,-1.24751 -1.19716,-1.86718 -1.20356,-1.17525 -1.52703,-2.10239 -0.6093,-1.74639 0.28875,0.11201 1.55896,0.56121 2.82269,0.99821 l 2.29768,0.79454 1.2314,2.98867 c 0.86266,2.09371 1.12821,3.05244 0.88679,3.20165 -0.23073,0.1426 -0.14337,0.32069 0.26436,0.53889 0.33493,0.17926 0.75471,0.74396 0.93282,1.25491 0.23869,0.68471 0.46393,0.88751 0.8566,0.77124 0.293,-0.0868 2.6927,-0.51023 5.3327,-0.94103 l 4.8,-0.78328 5.7863,-3.05663 5.7863,-3.05663 3.0637,-3.6877 c 2.8097,-3.382 3.1083,-3.86378 3.6018,-5.81187 0.296,-1.16829 0.4755,-2.1868 0.3989,-2.26335 -0.076,-0.0766 -2.3437,0.80685 -5.0381,1.96313 -5.5399,2.37737 -11.4307,3.87301 -13.8205,3.50891 -4.217,-0.64251 -8.0355,-1.56961 -11.32844,-2.75047 -2.27137,-0.81453 -4.04572,-1.2862 -4.5,-1.19622 -0.4125,0.0817 -7.77,3.07169 -16.35,6.6444 -15.28372,6.36414 -23.62844,9.54479 -24.97499,9.51938 -0.37125,-0.007 -0.675,0.10421 -0.675,0.24715 0,0.53166 -3.27396,1.13801 -7.2,1.33346 -2.2275,0.1109 -3.97607,0.1258 -3.88571,0.0331 0.0904,-0.0927 2.10056,-0.58137 4.4671,-1.08597 4.58908,-0.97849 4.35829,-0.87525 13.06861,-5.84554 1.485,-0.84737 5.4675,-2.73382 8.85,-4.19211 7.1042,-3.06281 15.19551,-6.70484 17.82758,-8.02447 1.00233,-0.50253 3.25409,-2.06224 5.00391,-3.46602 l 3.18149,-2.55232 1.66442,-3.63675 1.66442,-3.63676 -0.43252,-3.75 c -0.36843,-3.19442 -0.56413,-3.96407 -1.32091,-5.19493 -0.48862,-0.79471 -0.8884,-1.48847 -0.8884,-1.54168 0,-0.0532 -0.74066,-1.21607 -1.64593,-2.58414 -0.90525,-1.36806 -1.58878,-2.54453 -1.51894,-2.61437 0.0698,-0.0698 1.4106,0.30066 2.97947,0.82333 l 2.85249,0.95031 2.26646,3.69428 2.26649,3.69429 0,2.88582 c 0,2.73542 -0.085,3.1243 -1.6357,7.46146 -0.89961,2.5166 -1.67586,4.722 -1.725,4.90089 -0.0491,0.1789 1.08844,1.29784 2.5279,2.48653 l 2.6173,2.16127 5.782,-0.0364 c 3.1801,-0.02 5.9173,-0.14799 6.0827,-0.28437 0.1654,-0.13638 2.3258,-1.10866 4.8008,-2.16063 4.2626,-1.81176 4.8743,-2.18519 11.5959,-7.07837 7.3722,-5.36681 8.1124,-6.0532 16.089,-14.91836 2.6673,-2.96443 7.7166,-12.04473 9.3578,-16.82822 0.673,-1.96169 1.4377,-4.02429 1.6994,-4.58357 0.3984,-0.85147 0.4407,-1.68097 0.2604,-5.1 -0.344,-6.52339 -0.4198,-6.7949 -3.0341,-10.86305 -1.2685,-1.97395 -2.3995,-3.6466 -2.5135,-3.71701 -0.1139,-0.0704 -0.6076,0.44009 -1.0971,1.13445 -0.5114,0.72532 -2.3824,2.34544 -4.3975,3.80774 l -3.5074,2.54527 -1.3424,4.05473 -1.3424,4.05474 0.7324,4.64999 c 0.4028,2.5575 0.7362,4.84888 0.7409,5.09196 0,0.24307 -0.9316,-0.49099 -2.0807,-1.63125 -1.9155,-1.90087 -2.1337,-2.03616 -2.625,-1.62741 -0.2946,0.24519 -1.6157,1.39119 -2.9357,2.54668 -3.6753,3.21725 -3.7229,3.24306 -8.2581,4.48285 -3.4016,0.92987 -4.2996,1.2858 -4.479,1.77513 -0.1234,0.33662 -0.6826,2.73829 -1.2427,5.33704 -0.56,2.59875 -1.0997,4.725 -1.1992,4.725 -0.1,0 -0.3425,-1.85625 -0.54,-4.125 -0.5331,-6.12526 -0.5804,-6.35627 -1.3326,-6.50583 -0.3566,-0.0709 -3.2134,-0.27284 -6.3484,-0.44871 -4.0265,-0.22588 -8.1223,-0.7121 -13.95004,-1.65601 l -8.25,-1.33624 -4.8,2.60243 c -4.62879,2.50961 -6.54108,3.84597 -17.84999,12.47403 -1.7325,1.32181 -5.20292,4.20763 -7.71203,6.41295 l -4.56204,4.00967 -4.94444,1.33636 c -4.54009,1.22707 -5.23423,1.33638 -8.48797,1.33674 -1.94893,2.1e-4 -4.65906,-0.1555 -6.0225,-0.34602 -1.36344,-0.19052 -2.54498,-0.28041 -2.62564,-0.19975 -0.0807,0.0807 -0.50212,1.13663 -0.93658,2.34659 -0.49728,1.38489 -1.16391,2.57391 -1.79937,3.20936 -0.55518,0.55519 -1.00943,1.17959 -1.00943,1.38755 0,0.20796 -0.80904,2.46471 -1.79786,5.015 -1.75359,4.52272 -1.79791,4.70854 -1.8,7.54731 l -0.002,2.91043 1.725,3.15429 c 1.7203,3.14571 1.7299,3.15629 3.525,3.88814 0.99,0.40361 2.475,1.02783 3.3,1.38715 l 1.5,0.65332 -2.73509,1.28415 -2.7351,1.28415 -0.18027,1.31397 c -0.0992,0.72268 -0.34187,2.70898 -0.53937,4.41399 l -0.35908,3.10001 1.29726,2.64661 c 1.0915,2.22683 1.49191,2.75326 2.52445,3.319 0.67496,0.3698 2.66017,1.52768 4.41159,2.57303 l 3.18439,1.90068 8.51561,1.3269 c 4.68358,0.72978 8.92061,1.3395 9.41561,1.35489 0.495,0.0153 2.0475,-0.17844 3.45,-0.43083 z m -3.75,-13.22303 c -2.7401,-0.2472 -6.76004,-0.89631 -10.27882,-1.65975 -5.36107,-1.16315 -5.77244,-1.2991 -5.69062,-1.88066 0.14845,-1.05517 1.25034,-3.47455 1.58299,-3.47574 0.17246,-6e-4 1.58996,0.32682 3.15,0.72765 3.23609,0.83146 10.4313,1.37122 18.27893,1.37122 4.28646,0 5.31131,-0.10922 10.067,-1.0729 2.91209,-0.59009 5.33476,-1.02884 5.38371,-0.975 0.049,0.0539 -1.39066,1.36323 -3.19913,2.90974 -2.36906,2.0259 -3.62064,2.88655 -4.47776,3.07913 -1.68395,0.37836 -9.19756,1.4667 -9.80776,1.42065 -0.27969,-0.0211 -2.53354,-0.22106 -5.00854,-0.44434 z m 52.78653,1.13503 5.6866,-1.5977 5.4134,-4.0133 c 3.8583,-2.86039 6.0518,-4.72832 7.6356,-6.5023 1.2221,-1.36895 3.1688,-3.50151 4.3259,-4.73901 1.91,-2.04268 2.4042,-2.86558 5.3641,-8.93074 3.7229,-7.62875 7.5483,-17.3707 7.8685,-20.03827 l 0.2138,-1.78099 -2.0272,2.77945 c -1.9773,2.71111 -2.1509,2.86025 -7.0643,6.06649 -3.5661,2.32704 -5.0828,3.48667 -5.1931,3.97056 -0.086,0.37593 -0.4344,1.966 -0.7747,3.5335 -0.6433,2.96265 -1.2138,4.17539 -4.5866,9.75 -1.4251,2.35539 -2.5354,3.69757 -5.1673,6.24643 l -3.3522,3.24642 -6.2645,1.92182 c -6.1872,1.89811 -6.3089,1.922 -9.8645,1.93631 l -3.60004,0.0145 -1.05,1.5539 c -0.5775,0.85465 -2.1526,3.06732 -3.50023,4.91704 -1.34762,1.84973 -2.40552,3.40824 -2.35088,3.46337 0.0546,0.0551 2.91225,0.0327 6.35023,-0.0498 l 6.25092,-0.15 5.6865,-1.59769 z m -136.12967,-5.65589 1.85687,-0.47565 -3.57625,-3.44417 -3.57624,-3.44416 0.95496,-1.32977 c 1.64497,-2.29057 1.43854,-2.3362 4.86082,1.07444 l 3.091,3.08047 5.4446,2.32645 5.4446,2.32645 6.67139,0.0221 c 9.18,0.0304 12.16632,-0.47575 17.17139,-2.91052 3.28315,-1.59712 3.83584,-1.99076 6.27962,-4.47247 2.51037,-2.54934 2.65811,-2.76843 2.33907,-3.46865 -0.78072,-1.7135 -0.30377,-16.29943 0.58799,-17.98165 0.16057,-0.30288 0.24724,-0.59042 0.19263,-0.63898 -0.0546,-0.0485 -2.19181,-0.26016 -4.74931,-0.47023 l -4.65,-0.38194 -3.15,-1.85397 c -1.7325,-1.01969 -3.71889,-2.16865 -4.4142,-2.55325 -0.77345,-0.42782 -2.82371,-2.45617 -5.28156,-5.2251 l -4.01735,-4.52583 -5.77386,-1.71507 c -5.50057,-1.63389 -5.93926,-1.82116 -9.26845,-3.95652 l -3.49458,-2.24145 -3.79757,-5.04348 c -3.30796,-4.39325 -4.18494,-5.82046 -6.80223,-11.07012 l -3.00466,-6.02664 -3.24777,-2.42198 c -1.78627,-1.3321 -3.58527,-2.57422 -3.99777,-2.76028 -0.4125,-0.18606 -2.42891,-0.71018 -4.48092,-1.16471 l -3.73092,-0.82642 -3.46908,1.48201 c -2.48394,1.06115 -4.17192,2.03043 -5.94408,3.41323 -1.36125,1.06218 -2.475,1.84191 -2.475,1.73274 0,-0.10917 0.54485,-1.37117 1.21077,-2.80444 l 1.21078,-2.60595 2.84665,-1.46112 c 1.56566,-0.80362 2.91327,-1.56891 2.99468,-1.70064 0.0814,-0.13173 -0.96817,-0.58113 -2.33242,-0.99866 -1.36426,-0.41753 -5.24796,-1.64468 -8.63046,-2.727 -5.85562,-1.87366 -6.39412,-1.99009 -11.25,-2.43247 l -5.1,-0.46463 -4.28916,1.51709 c -2.35903,0.83439 -4.38403,1.49052 -4.5,1.45806 -0.11596,-0.0325 -0.53405,0.11983 -0.92909,0.33842 -0.42515,0.23526 -1.19025,0.33413 -1.87494,0.24229 -0.63904,-0.0857 -1.24135,-0.0182 -1.34584,0.15091 -0.10561,0.17087 -0.76275,0.2414 -1.48781,0.15968 -0.73541,-0.0829 -1.34209,-0.0161 -1.39882,0.15413 -0.0596,0.1789 -2.37295,0.36279 -5.71664,0.45443 l -5.61647,0.15392 -1.19561,1.82983 c -1.11138,1.70091 -1.19562,1.98061 -1.19562,3.96962 0,2.38484 0.25781,3.26242 2.1049,7.16522 1.12505,2.37716 3.66833,6.57444 4.17249,6.88603 0.0999,0.0617 2.06956,0.33577 4.3771,0.60899 2.30753,0.27322 6.67767,0.89646 9.71143,1.38496 3.03375,0.48851 5.55284,0.85036 5.59797,0.80411 0.0451,-0.0462 -0.30813,-2.58159 -0.78501,-5.63409 -0.47689,-3.0525 -0.86972,-5.78102 -0.87297,-6.06337 -0.004,-0.36093 0.45571,-0.65047 1.54854,-0.975 0.85495,-0.2539 1.6987,-0.46097 1.875,-0.46018 0.17631,9e-4 0.88912,2.3632 1.58404,5.24978 l 1.2635,5.24832 2.36042,3.67522 c 1.29824,2.02138 3.29755,4.99352 4.44291,6.60477 l 2.08247,2.92954 4.79361,2.69506 c 2.63648,1.48228 5.0124,2.69523 5.27981,2.69546 0.91221,9e-4 9.39972,-0.93553 9.51369,-1.04949 0.0625,-0.0625 0.64426,-2.98426 1.29285,-6.49286 0.6486,-3.50859 1.23574,-6.43574 1.30477,-6.50477 0.2458,-0.2458 4.10321,0.63066 4.22976,0.96106 0.0709,0.18505 -0.47248,3.62586 -1.20748,7.64623 l -1.33635,7.30976 0.95307,2.14024 c 0.52418,1.17713 2.37291,4.12069 4.10827,6.54124 2.94983,4.11454 3.39085,4.58472 6.77534,7.22338 1.99107,1.55231 3.80496,2.93661 4.03087,3.07623 0.62796,0.3881 8.07113,1.2729 9.599,1.14107 0.7425,-0.0641 3.4425,-0.37436 6,-0.68956 8.05486,-0.99271 8.1,-0.99647 8.1,-0.67538 0,0.16734 -0.34623,0.5311 -0.76939,0.80837 -0.42317,0.27727 -2.10815,1.49052 -3.74441,2.6961 l -2.97501,2.19198 3.15308,2.24671 c 2.99868,2.1367 3.33628,2.29498 6.89441,3.23238 3.56862,0.94016 5.01113,1.68286 2.61632,1.34705 -0.61875,-0.0868 -2.1375,-0.27785 -3.375,-0.42464 -1.99649,-0.23681 -2.796,-0.55426 -7.09601,-2.81747 l -4.846,-2.55059 -6.104,-0.49612 -6.10399,-0.49611 -3.3,-1.99463 c -6.84708,-4.13861 -6.42111,-3.77371 -10.55031,-9.03754 -2.11733,-2.69913 -4.4251,-5.66682 -5.12837,-6.59487 -0.70328,-0.92805 -1.60926,-2.09237 -2.0133,-2.58737 -0.40403,-0.495 -0.90937,-1.13975 -1.12298,-1.43278 -0.34924,-0.4791 -0.8836,-0.52444 -5.30366,-0.45 l -4.91528,0.0828 -1.88041,5.4 c -1.03423,2.97 -2.00539,5.72623 -2.15815,6.12494 -0.26213,0.68421 -0.37982,0.57862 -2.09481,-1.87937 l -1.81709,-2.60431 0.59387,-1.87063 c 1.09987,-3.4645 2.04049,-6.62476 2.04049,-6.85557 0,-0.12606 -1.62338,-1.39526 -3.60751,-2.82045 -1.98412,-1.42518 -5.25787,-4.1948 -7.275,-6.1547 -2.01712,-1.95991 -4.13999,-3.75403 -4.71749,-3.98694 -0.5775,-0.23291 -2.13925,-0.84637 -3.47055,-1.36322 l -2.42056,-0.93975 -6.42944,-0.004 c -4.71442,-0.003 -6.86958,-0.12169 -8.07945,-0.44644 -0.9075,-0.24358 -1.68375,-0.44448 -1.725,-0.44643 -0.20309,-0.01 -0.0383,1.85402 0.22529,2.54719 0.16516,0.4344 1.22963,2.04263 2.36549,3.57383 1.96097,2.64349 2.22711,2.87636 5.27267,4.6134 2.74641,1.56643 3.71084,1.94142 6.7095,2.60885 8.42905,1.8761 15.00807,4.56214 16.22465,6.6241 0.35848,0.60758 0.61254,1.13582 0.56459,1.17386 -0.048,0.038 -1.8921,-0.50932 -4.0981,-1.21638 -3.65067,-1.17011 -4.47249,-1.31911 -9.15,-1.65901 l -5.13909,-0.37344 -4.16095,-2.15641 c -3.41456,-1.76959 -4.71786,-2.64972 -7.26564,-4.90654 -2.18341,-1.93406 -3.42816,-3.30397 -4.19476,-4.61657 -1.17733,-2.01587 -1.54265,-2.49468 -1.21913,-1.59785 0.11281,0.31272 0.55215,2.13522 0.97632,4.05 0.60411,2.72709 1.07978,4.03391 2.19538,6.0314 4.58869,8.21612 4.71452,8.37872 10.36878,13.39814 2.42843,2.15577 5.4359,3.95618 5.84723,3.5004 0.12335,-0.1367 0.52705,-1.49729 0.8971,-3.02354 l 0.67282,-2.775 1.61642,0 1.61643,0 0,3.66284 c 0,3.56715 0.033,3.75141 1.26339,7.05369 l 1.26339,3.39086 4.36161,3.04401 c 6.09427,4.25326 10.53599,6.23657 16.66116,7.43952 l 4.50045,0.88386 2.25,-1.26829 2.25,-1.26828 0.15,-4.17948 0.15,-4.17948 1.39439,3.88538 c 0.76691,2.13695 1.71191,4.80228 2.1,5.92295 l 0.70561,2.03758 5.45221,3.57551 5.4522,3.57552 4.7478,0.87938 c 4.94297,0.91553 5.3536,0.92241 8.40465,0.14085 z m 48.21111,-35.97945 c 1.70209,-1.2598 1.94491,-1.5829 2.72493,-3.62593 l 0.85633,-2.24288 -0.49961,-3.81474 c -0.27479,-2.0981 -0.49962,-5.31548 -0.49962,-7.14973 0,-2.13188 -0.32151,-5.53152 -0.89122,-9.42369 l -0.89122,-6.08868 -2.59013,-5.1749 -2.59013,-5.17489 -3.79365,-2.31633 c -2.08651,-1.27399 -6.62865,-3.84191 -10.09365,-5.70651 -3.465,-1.8646 -6.14451,-3.3921 -5.95446,-3.39443 0.19004,-0.002 4.89403,1.76051 10.4533,3.91744 5.55927,2.15694 10.15872,3.87075 10.22099,3.80847 0.0623,-0.0623 0.47988,-1.84284 0.928,-3.9568 l 0.81476,-3.84357 -0.47652,-3.9399 c -0.46667,-3.85844 -0.5221,-4.03807 -2.68129,-8.68878 -2.08353,-4.48773 -2.37935,-4.94822 -5.37909,-8.3735 l -3.17431,-3.62462 -6.63073,-1.87944 -6.63074,-1.87944 -6.99495,0.89118 c -4.31409,0.54963 -9.12204,0.9542 -12.54496,1.05561 -5.37004,0.15909 -5.63755,0.13864 -8.25,-0.63054 -7.35308,-2.16495 -6.62639,-1.80445 -9.74559,-4.83467 -1.56992,-1.52514 -3.20073,-3.04504 -3.62402,-3.37754 -0.42328,-0.33251 -1.0177,-1.15473 -1.32092,-1.82716 -0.61565,-1.36525 -0.28062,-1.22861 -6.38568,-2.60456 l -3.6762,-0.82854 -4.3795,0.95815 c -3.94256,0.86255 -4.64428,1.11688 -7.03352,2.54923 -2.47862,1.48592 -2.81015,1.80799 -5.0162,4.8729 -1.29919,1.805 -3.0836,4.56433 -3.96534,6.13183 -2.30885,4.10447 -2.69307,4.70401 -2.69167,4.2 6e-4,-0.2475 0.39428,-3.35039 0.87464,-6.89532 0.48036,-3.54492 0.82588,-6.4928 0.76783,-6.55085 -0.058,-0.058 -2.71515,1.30861 -5.90468,3.03701 l -5.79915,3.14255 -4.69999,0.7833 c -5.50443,0.91738 -6.49996,0.96281 -6.75117,0.30815 -0.10029,-0.26133 -0.2648,-0.34536 -0.36559,-0.18672 -0.10792,0.16986 -0.79987,0.01 -1.68325,-0.38944 -2.04686,-0.92499 -2.97549,-1.19443 -2.72614,-0.79098 0.19804,0.32043 -1.82768,1.98371 -2.97386,2.44177 -0.33,0.13188 -1.2075,0.79155 -1.95,1.46592 -0.7425,0.67438 -1.45459,1.22804 -1.58242,1.23037 -0.23811,0.004 -0.94535,1.49781 -0.8759,1.84961 0.0212,0.10746 -0.43704,1.59246 -1.01834,3.3 l -1.05691,3.10463 0.36444,4.00282 0.36444,4.00282 1.84448,3.04718 c 1.62425,2.68334 2.09318,3.21774 3.92735,4.47564 l 2.08286,1.42846 2.25,-0.14579 c 5.19665,-0.33671 11.03149,-1.02939 12.15,-1.44238 0.66,-0.2437 2.3475,-0.86752 3.75,-1.38628 1.4025,-0.51875 3.765,-1.25202 5.25,-1.62949 3.10349,-0.78885 2.40189,-0.8697 11.7,1.34825 5.34804,1.27571 7.12462,1.56417 11.75723,1.90898 3.00148,0.22341 7.77718,0.82794 10.61268,1.34341 l 5.15545,0.93721 4.08732,3.08429 c 3.0756,2.32085 5.21073,4.27663 8.62586,7.90133 l 4.53854,4.81705 3.92513,7.60324 c 3.31455,6.42056 4.25757,7.98582 6.06237,10.06265 l 2.13725,2.45939 2.89909,0.64541 c 5.33163,1.18695 10.99518,2.7279 11.3744,3.09478 0.20643,0.1997 1.28643,1.82056 2.4,3.60191 l 2.02468,3.23881 4.42617,2.6782 c 4.3493,2.6317 4.49517,2.69324 8.39999,3.54381 2.18562,0.47609 4.0187,0.87971 4.07352,0.89695 0.0548,0.0172 0.94056,-0.59102 1.96829,-1.35169 z m 32.43203,-9.71697 c 1.98,-1.31947 3.68009,-2.39926 3.77798,-2.39952 0.0979,-2.6e-4 0.63789,-0.40802 1.2,-0.90612 0.56211,-0.49811 3.69911,-2.85255 6.97111,-5.23209 5.37473,-3.90874 8.68359,-6.73344 18.27298,-15.59922 l 2.02208,-1.8695 8.86903,-3.23066 c 4.87795,-1.77687 8.93295,-3.16674 9.01105,-3.08861 0.078,0.0781 -1.1361,0.9048 -2.6982,1.83703 -1.5622,0.93224 -4.879,2.96003 -7.37066,4.50619 -3.73566,2.31811 -4.40971,2.84018 -3.84283,2.97638 0.3781,0.0908 4.21578,0.84969 8.52819,1.68633 l 7.8407,1.52116 7.4052,-0.45955 7.4051,-0.45955 5.3774,-2.69186 5.3774,-2.69185 2.0268,-2.58526 c 3.3274,-4.24447 3.3021,-4.19414 4.1933,-8.34623 l 0.8334,-3.88294 2.8767,-2.11706 c 1.5822,-1.16439 3.8128,-2.77659 4.9569,-3.58267 1.9763,-1.39246 2.1934,-1.66944 4.3514,-5.55 l 2.2713,-4.08439 0.3276,-3.45 c 0.3476,-3.66003 0.3753,-3.41723 -1.1289,-9.9 -1.0922,-4.70743 -0.8939,-4.5829 -2.4011,-1.50804 l -1.3353,2.72424 -5.1443,2.67181 c -4.7284,2.45582 -5.57,2.78317 -10.4098,4.04931 -2.896,0.75762 -5.9178,1.73433 -6.715,2.17047 -0.7972,0.43614 -2.9345,2.22393 -4.7495,3.97287 l -3.3,3.17989 -3.5644,0.85896 c -3.4978,0.84292 -3.68,0.85574 -9.75,0.68613 -3.4021,-0.0951 -7.84024,-0.26193 -9.86253,-0.37082 -3.57807,-0.19267 -3.82805,-0.16406 -9.3,1.06427 l -5.62311,1.26227 -5.4,3.47929 c -4.77482,3.07648 -5.92098,3.98436 -9.89999,7.84184 l -4.5,4.36255 -3.6217,7.50248 c -3.29657,6.82895 -3.69382,7.511 -4.425,7.5974 -0.44182,0.0522 -0.8033,0.007 -0.8033,-0.10087 0,-0.26754 3.87703,-13.54458 4.21384,-14.43046 0.14838,-0.39027 2.04278,-3.37674 4.20977,-6.63659 l 3.93999,-5.927 3.94319,-3.10307 c 2.4513,-1.92903 4.85083,-3.53206 6.34211,-4.23692 l 2.3989,-1.13385 -0.0849,-5.21309 c -0.0774,-4.75212 -0.008,-5.59771 0.78559,-9.56307 l 0.87051,-4.35 -2.68294,-2.72919 c -2.6101,-2.65508 -2.70247,-2.79763 -3.40218,-5.25 -0.39558,-1.38645 -0.72253,-2.79816 -0.72655,-3.13714 -0.004,-0.33898 0.59237,-2.09398 1.32532,-3.9 0.73295,-1.80602 2.01545,-5.46954 2.85,-8.14115 1.48332,-4.7485 1.51736,-4.94165 1.51736,-8.60925 l 0,-3.75178 -1.62002,-4.14075 c -0.89102,-2.27741 -1.79435,-4.72938 -2.0074,-5.44883 -0.36497,-1.23243 -1.89305,-3.16675 -5.10689,-6.46455 -1.80595,-1.85314 -2.35879,-3.92214 -2.57243,-9.62736 l -0.17975,-4.8 -2.69812,-5.4 -2.69811,-5.4 -0.4333,-5.55 c -0.38772,-4.96613 -0.38182,-6.28631 0.0561,-12.54902 0.49767,-7.11769 0.56435,-12.37494 0.15553,-12.26293 -0.39383,0.1079 -6.85493,-5.31091 -7.08024,-5.93805 -0.11855,-0.33 -0.24117,-0.8025 -0.27249,-1.05 -0.0313,-0.2475 -0.35811,-1.125 -0.72621,-1.95 -1.29067,-2.89274 -2.35749,-6.63131 -2.8678,-10.05 l -0.51499,-3.45 1.30808,-2.32487 c 0.71944,-1.27867 1.40932,-2.32492 1.53307,-2.32499 0.12375,-8e-5 0.225,1.47876 0.225,3.28631 0,3.15511 0.067,3.49913 1.67669,8.6083 l 1.6767,5.32185 2.68494,3.04484 c 2.68127,3.04069 2.68892,3.0464 5.5983,4.17388 1.60236,0.62097 3.01907,1.227 3.14826,1.34674 0.12918,0.11974 -0.17457,2.86654 -0.675,6.104 -0.77358,5.00452 -0.90948,6.73098 -0.90719,11.52511 l 0.003,5.63883 1.35372,4.8 c 1.29115,4.57815 1.45737,4.95583 3.59647,8.17158 l 2.24275,3.37159 1.57584,-0.70695 c 0.86671,-0.38882 3.84712,-1.74975 6.62313,-3.02428 2.77602,-1.27454 5.08623,-2.27113 5.1338,-2.21464 0.20471,0.24304 1.70208,4.21767 1.615,4.28688 -0.0529,0.042 -3.7411,1.40153 -8.1961,3.02116 -4.455,1.61963 -8.22723,3.05624 -8.38274,3.19246 -0.25863,0.22656 -1.0007,4.59457 -1.04749,6.16586 -0.0119,0.40077 0.64787,1.41086 1.66572,2.55 2.01779,2.25825 6.31095,8.43185 7.46611,10.73634 0.4549,0.9075 0.9233,1.7175 1.04089,1.8 0.1176,0.0825 0.90989,1.53312 1.76066,3.22361 l 1.54684,3.0736 0,3.30286 c 0,2.86027 -0.13916,3.79511 -1.03851,6.97639 -0.57118,2.02045 -1.85322,5.69854 -2.84899,8.17354 -1.68792,4.19539 -1.81054,4.66266 -1.81148,6.90306 -9e-4,2.07196 0.092,2.50598 0.67426,3.15 0.3714,0.41082 1.45991,1.6491 2.41892,2.75175 l 1.74363,2.00482 4.40609,-0.0975 4.40608,-0.0975 4.8,-2.0468 c 4.38649,-1.87049 5.30149,-2.40455 10.62109,-6.19986 l 5.8211,-4.15305 5.4289,-1.7672 c 2.9859,-0.97196 7.3055,-2.31408 9.5992,-2.98249 3.8967,-1.13556 4.4184,-1.21528 7.952,-1.21528 l 3.7817,0 2.323,-3.19402 2.323,-3.19402 0,-2.77805 c 0,-2.6189 -0.078,-2.96442 -1.3626,-6.03099 -0.8941,-2.13428 -1.735,-3.63427 -2.4453,-4.36186 l -1.0825,-1.10894 -1.0476,1.40894 c -0.5762,0.77491 -1.9392,2.32345 -3.0289,3.44119 l -1.9814,2.03225 0.8836,1.63336 c 0.4859,0.89834 0.823,1.68163 0.7491,1.74065 -0.074,0.059 -0.6424,0.41283 -1.2633,0.78626 l -1.1289,0.67897 -2.7711,-1.65213 c -3.0818,-1.8374 -8.0816,-4.10161 -9.0571,-4.10161 -0.3478,0 -2.4508,0.34469 -4.6732,0.76597 -3.5592,0.67468 -4.5235,0.99835 -8.0908,2.71568 -4.0253,1.93783 -4.0653,1.96719 -6.5653,4.81652 -1.3834,1.57673 -3.52746,4.16843 -4.76458,5.75931 -1.23712,1.59089 -2.29541,2.94519 -2.35176,3.00956 -0.11596,0.1325 -3.41835,-2.30946 -3.41835,-2.5277 0,-0.0777 1.05761,-1.72705 2.35023,-3.66529 1.29263,-1.93823 2.60289,-3.96053 2.91171,-4.49402 0.81021,-1.39965 8.42395,-6.47195 13.48805,-8.98578 l 4.2,-2.08489 5.85,0.39082 c 3.2175,0.21496 6.8335,0.60798 8.0355,0.87338 1.8202,0.40189 2.2714,0.41636 2.7,0.0866 0.4387,-0.33761 4.9141,-3.93742 5.5197,-4.43991 0.1129,-0.0936 0.4189,-1.40785 0.68,-2.92048 l 0.4747,-2.75022 -1.256,-3.39978 c -1.227,-3.32109 -1.3176,-3.4626 -3.9138,-6.11423 -2.4187,-2.47039 -3.031,-2.90894 -6.8098,-4.87732 l -4.1521,-2.16285 -2.6406,-4.03908 c -2.2755,-3.48068 -2.9566,-4.284 -4.9263,-5.8108 -1.8651,-1.4457 -4.2319,-2.91176 -5.8202,-3.60508 -0.1424,-0.0622 0.086,0.47706 0.5085,1.19828 0.4221,0.72122 1.665,3.26881 2.7619,5.66131 l 1.9944,4.35 -0.3743,3.53858 c -0.2227,2.10478 -0.2644,3.63927 -0.103,3.78707 0.1493,0.13667 2.9039,1.40284 6.1214,2.8137 9.216,4.0412 9.2517,4.05854 8.4,4.08325 -0.4125,0.012 -4.7348,-0.37299 -9.6051,-0.85545 -7.5366,-0.74658 -9.8797,-1.10524 -15.7365,-2.40875 -3.78487,-0.84235 -6.94383,-1.59384 -7.01996,-1.66998 -0.24847,-0.24847 0.0639,-0.31492 4.01157,-0.85351 2.14499,-0.29265 4.87879,-0.67289 6.07499,-0.84497 l 2.175,-0.31288 0,-2.47452 c 0,-3.17361 -1.1411,-7.16358 -3.6708,-12.83507 l -1.8432,-4.13253 -5.718,-3.43729 -5.71799,-3.43728 -5.475,-0.0283 c -3.01125,-0.0156 -5.475,-0.13812 -5.475,-0.27233 0,-0.13421 1.04625,-0.56767 2.325,-0.96324 l 2.325,-0.7192 -0.0112,-2.68865 c -0.011,-2.63156 -0.0493,-2.77307 -1.8049,-6.66539 l -1.79367,-3.97674 -2.9951,-1.99045 c -1.6473,-1.09475 -3.0382,-2.02582 -3.09089,-2.06905 -0.20795,-0.17063 0.68019,-2.60742 0.99426,-2.72794 0.18413,-0.0707 1.64355,0.47898 3.24316,1.2214 l 2.90838,1.34987 0,-3.33201 0,-3.33201 -2.70634,-4.42669 c -1.48849,-2.43468 -2.87224,-4.55478 -3.075,-4.71133 -0.33159,-0.25601 -2.54662,-1.07588 -9.96045,-3.68675 -2.31568,-0.81549 -3.03697,-1.34665 -2.20816,-1.62608 0.21997,-0.0742 2.27739,-0.27543 4.57204,-0.44725 2.29465,-0.17183 4.23335,-0.37366 4.30821,-0.44853 0.0749,-0.0749 -0.14154,-0.9583 -0.4809,-1.96319 -0.42651,-1.26298 -1.42284,-2.88928 -3.22699,-5.26742 l -2.61002,-3.44031 -2.88122,-0.87726 c -1.58467,-0.48249 -3.5886,-1.08202 -4.45319,-1.3323 -0.86457,-0.25027 -3.49707,-0.6222 -5.85,-0.82651 l -4.27804,-0.37146 -2.8569,-2.78485 c -2.7248,-2.65608 -3.03,-2.85973 -6.6,-4.40406 l -3.7431,-1.61919 -3.80538,0.44959 -3.80538,0.4496 -3.5094,3.86512 -3.50939,3.86513 0.0572,2.8351 0.0572,2.83511 1.70759,1.65258 1.70759,1.65257 2.475,0.006 c 1.95215,0.005 2.475,0.0974 2.475,0.43834 0,0.23777 -0.12176,0.50755 -0.27059,0.59953 -0.72554,0.44841 -4.12813,6.58186 -5.30251,9.5582 l -1.32574,3.35998 -6e-4,4.13159 c -6e-4,3.95731 0.0377,4.21597 0.90647,6.13205 0.49888,1.10026 0.95257,2.04598 1.0082,2.10161 0.0839,0.0839 10.62963,-3.58396 13.48554,-4.6904 0.46794,-0.18129 0.80544,-0.20897 0.75,-0.0615 -0.0554,0.14745 -1.95359,1.6927 -4.21812,3.43387 -2.26453,1.74117 -5.40635,4.28785 -6.98182,5.65928 -2.68889,2.34065 -3.02499,2.76837 -5.48267,6.97702 l -2.61818,4.48352 -0.20249,-2.08352 c -0.28304,-2.91231 -1.56035,-6.87657 -2.8456,-8.83159 -0.59728,-0.90856 -2.14706,-3.16474 -3.44395,-5.01374 -1.29685,-1.84901 -2.35794,-3.43707 -2.35794,-3.52904 0,-0.25457 2.16193,0.7039 2.71337,1.20295 0.26693,0.24156 0.56219,0.36234 0.65615,0.26839 0.094,-0.094 0.85925,0.17802 1.70065,0.60439 1.08371,0.54916 1.52983,0.65894 1.52983,0.37645 0,-0.21933 -0.40239,-1.58921 -0.8942,-3.04418 l -0.89421,-2.64541 1.01298,-4.01989 1.01299,-4.01989 -0.94378,-0.38856 c -0.51908,-0.21376 -2.93503,-1.17892 -5.36878,-2.14485 -4.90108,-1.94518 -4.67266,-1.69058 -4.0212,-4.48203 l 0.3462,-1.48344 1.65,0.082 c 0.9075,0.0451 2.865,0.18431 4.35,0.30936 1.485,0.12505 2.74132,0.19687 2.79183,0.15961 0.0505,-0.0373 -0.92113,-1.58721 -2.15919,-3.44434 l -2.25102,-3.3766 -5.29591,-2.75815 -5.29591,-2.75814 -2.17905,0.51916 c -1.19848,0.28553 -2.45857,0.66874 -2.80018,0.85157 -0.34162,0.18283 -0.94207,0.33241 -1.33434,0.33241 -1.31413,0 -5.36173,1.2129 -7.04479,2.11103 -0.91625,0.48893 -1.85181,0.88897 -2.07903,0.88897 -0.65054,0 -9.45676,4.4001 -10.4062,5.19955 -0.83444,0.70261 -0.84294,0.73989 -0.375,1.64478 0.33419,0.64625 0.47879,1.74016 0.47879,3.6221 0,2.65161 0.0208,2.7288 1.25509,4.6649 0.6903,1.08277 1.33155,1.96443 1.425,1.95925 0.0934,-0.005 0.91241,-1.32143 1.81991,-2.925 l 1.65,-2.91558 1.82687,-0.17494 c 1.00478,-0.0962 2.42228,-0.46186 3.15,-0.81255 2.15778,-1.03983 4.98827,-1.82737 5.33208,-1.48356 0.20331,0.20331 0.43522,0.16618 0.70736,-0.11324 0.77715,-0.79795 2.33369,-3.57943 2.33369,-4.17021 0,-1.03403 0.42787,-0.64916 1.0894,0.97992 0.55967,1.37824 0.6008,1.78624 0.32984,3.272 -0.36019,1.97503 0.16706,1.6371 -6.66924,4.27451 -5.79689,2.23642 -7.61033,3.4507 -8.8777,5.94452 -0.47976,0.94404 -0.8723,1.77614 -0.8723,1.84911 0,0.073 1.08,1.03347 2.4,2.13444 1.32,1.10098 2.4,2.10043 2.4,2.221 0,0.12058 -2.07333,0.4455 -4.60741,0.72206 l -4.60741,0.50284 -4.50665,2.56822 -4.50665,2.56821 -2.58594,3.88193 -2.58594,3.88193 0,4.06146 0,4.06147 1.63963,3.61143 c 0.9018,1.98628 2.21154,4.31073 2.91053,5.16544 0.69898,0.8547 1.29359,1.59271 1.32136,1.64 0.0278,0.0473 0.77677,-0.20433 1.66448,-0.55918 0.8877,-0.35486 2.829,-1.09474 4.314,-1.64418 l 2.7,-0.999 -3.35901,3.23458 c -1.84745,1.77902 -5.94257,5.5177 -9.10028,8.30818 -4.70788,4.16039 -5.89337,5.3706 -6.5863,6.72361 -0.46477,0.9075 -1.18821,2.04658 -1.60764,2.53129 -0.41943,0.4847 -0.69814,0.98559 -0.61935,1.11307 0.0788,0.12749 -0.2664,1.04331 -0.76708,2.03516 -1.25289,2.48195 -1.2629,5.23827 -0.0346,9.53542 0.48163,1.68502 0.98041,3.23724 1.1084,3.44937 0.43417,0.71956 3.199,3.98511 3.45963,4.08616 0.14251,0.0553 2.96546,-1.34401 6.2732,-3.1095 3.30774,-1.76549 6.06962,-3.15443 6.13751,-3.08654 0.11291,0.11291 -1.35318,1.38059 -8.87518,7.67405 -2.49231,2.08525 -2.69846,2.35489 -4.8165,6.3 l -2.21275,4.12152 -0.47254,5.55 -0.47253,5.55 0.86404,3.15 c 2.04972,7.47254 1.69677,6.77456 4.81879,9.52939 1.76337,1.55597 4.23691,3.31103 6.65692,4.7233 l 3.85092,2.24731 4.59058,0 c 3.58553,0 5.16785,-0.13552 7.2272,-0.61897 1.45014,-0.34043 3.24412,-0.75516 3.98662,-0.92162 0.7425,-0.16646 3.42261,-0.53354 5.95579,-0.81574 l 4.60579,-0.51307 4.24421,0.95435 4.24421,0.95435 2.60532,-0.97943 c 1.8377,-0.69086 3.26251,-1.49952 4.83587,-2.74465 l 2.23054,-1.76522 0.91626,-2.85 c 0.50394,-1.5675 1.00567,-3.5925 1.11495,-4.5 0.33223,-2.75898 0.41292,-3.40167 0.58383,-4.65 0.11897,-0.86893 -0.1201,-2.13971 -0.86653,-4.60607 -0.96506,-3.1888 -1.14211,-3.52369 -2.77553,-5.25 -3.33153,-3.521 -3.16534,-3.43235 -9.15324,-4.88241 -3.23038,-0.78229 -5.82195,-1.25774 -6.36904,-1.16846 -0.50734,0.0828 -3.04847,0.29578 -5.64695,0.47331 -4.5573,0.31135 -4.94409,0.39136 -10.92763,2.26066 -3.4117,1.06583 -6.31446,1.90076 -6.45056,1.8554 -0.13611,-0.0454 2.63862,-1.73862 6.16605,-3.76279 l 6.41351,-3.6803 6.33059,-0.8834 6.33059,-0.8834 4.89907,0.46146 4.89907,0.46146 2.40935,-1.65968 c 1.32514,-0.91282 2.54587,-1.8343 2.71274,-2.04773 0.16686,-0.21343 0.7236,-2.08712 1.23719,-4.16375 l 0.9338,-3.7757 -0.58244,-3.7243 c -0.32034,-2.04837 -1.17606,-5.96852 -1.90161,-8.71146 l -1.31917,-4.98716 0.54269,-5.36284 c 0.70016,-6.91891 0.55176,-6.29583 2.492,-10.46284 l 1.67622,-3.6 4.88153,-3.12014 c 2.68484,-1.71607 5.28653,-3.22235 5.78153,-3.34728 0.495,-0.12493 2.28375,-0.6252 3.975,-1.11172 1.69125,-0.48653 3.07133,-0.80275 3.06685,-0.70273 -0.0152,0.33894 -8.54113,4.78299 -8.64241,4.50476 -0.0553,-0.15193 -0.3253,-0.009 -0.6,0.31679 -0.27469,0.32616 -1.70811,1.25538 -3.18538,2.06493 l -2.68593,1.47189 -0.39393,1.61175 c -0.21666,0.88646 -0.43977,1.88175 -0.4958,2.21175 -0.056,0.33 -0.27171,1.40412 -0.47927,2.38694 -0.30119,1.42615 -0.30349,2.75874 -0.0114,6.6 l 0.36601,4.81306 2.37443,3.6 c 1.79195,2.71686 2.77613,3.89438 4.01193,4.8 0.90063,0.66 1.58431,1.34978 1.51928,1.53284 -0.065,0.18306 -1.44598,2.20725 -3.06881,4.49819 l -2.95059,4.16534 -0.0365,5.85181 c -0.0362,5.81387 0.0189,6.33372 1.26442,11.93362 0.47114,2.11819 0.53685,2.22148 2.25378,3.54263 1.07749,0.82911 1.91497,1.27335 2.14337,1.13694 0.20618,-0.12314 1.92737,-1.38826 3.82487,-2.81137 1.8975,-1.42312 3.60309,-2.67859 3.7902,-2.78994 0.18711,-0.11135 2.54961,-0.68035 5.25,-1.26443 2.70039,-0.58409 5.14605,-1.1349 5.4348,-1.22402 0.28875,-0.0891 0.52489,-0.0517 0.52475,0.0832 -1.4e-4,0.13487 -2.31227,1.32522 -5.13805,2.64522 l -5.1378,2.4 -3.8044,4.2 c -2.09243,2.31 -3.90562,4.36849 -4.02931,4.57444 -0.1237,0.20594 -1.21031,3.04387 -2.4147,6.30651 l -2.18979,5.93208 0.52898,6.74348 c 0.52404,6.68049 0.54466,6.79464 2.20715,12.2195 0.923,3.01181 1.67817,5.52385 1.67817,5.58232 0,0.0585 1.42808,1.29149 3.17351,2.74006 l 3.1735,2.63376 3.03564,-0.79557 c 2.84393,-0.74532 3.35872,-1.00971 8.1515,-4.18651 2.81372,-1.86502 5.50812,-3.6473 5.98755,-3.96061 1.63168,-1.06632 0.63432,0.0152 -3.8717,4.19833 -7.39289,6.86318 -10.03079,9.68395 -13.47964,14.41411 l -3.27965,4.4981 -1.76044,5.4 c -0.96825,2.97 -1.82436,5.73749 -1.90247,6.14999 -0.0781,0.4125 -0.52119,3.00226 -0.98461,5.75501 l -0.8426,5.005 2.19714,6.845 2.19714,6.84499 2.41201,2.27467 2.41201,2.27467 2.76556,0.46166 c 1.72415,0.28782 4.91194,0.47605 8.46555,0.49986 l 5.7,0.0382 3.6,-2.39906 z M 317.698,280.80142 c -0.44123,-1.34591 -0.74317,-2.5427 -0.67098,-2.65952 0.0722,-0.11681 0.64081,-0.28675 1.26359,-0.37764 0.62277,-0.0909 3.62981,-0.65483 6.68231,-1.25319 6.4974,-1.27365 14.7,-2.55252 14.7,-2.29188 0,0.20692 -20.38384,9.02976 -20.86133,9.02952 -0.17124,-9e-5 -0.67235,-1.10137 -1.11359,-2.44729 z m -10.17753,-56.12787 c 3.15392,-4.72312 3.26502,-4.94576 3.56619,-7.14619 0.25709,-1.87827 0.61581,-2.83179 2.07356,-5.51161 1.49124,-2.74139 2.08265,-3.51159 3.84029,-5.00122 1.14267,-0.96844 2.13544,-1.70296 2.20613,-1.63226 0.0707,0.0707 -0.42925,1.80235 -1.111,3.84811 l -1.23955,3.71956 0.38341,2.50587 0.38342,2.50587 1.5,0.35553 c 0.825,0.19553 2.95125,0.59373 4.725,0.88488 1.77375,0.29115 3.225,0.62836 3.225,0.74936 0,0.121 -1.65375,0.31487 -3.675,0.43082 -5.40972,0.31032 -5.41666,0.31209 -10.01996,2.55201 -3.88947,1.89258 -4.42718,2.25601 -6.42087,4.33991 -1.19675,1.2509 -2.29202,2.27436 -2.43393,2.27436 -0.14192,0 1.20688,-2.19375 2.99731,-4.875 z m -31.03942,-2.19225 c -2.45559,-2.26289 -5.47847,-4.28223 -8.41274,-5.61984 l -3.05462,-1.39248 -5.38071,-0.3493 -5.3807,-0.3493 -4.16468,2.68414 c -2.29058,1.47628 -4.36718,2.8033 -4.61468,2.94896 -0.43506,0.25602 0.13098,-0.57477 2.38008,-3.49331 0.88421,-1.1474 1.71111,-1.70855 4.76403,-3.233 l 3.6941,-1.84461 5.35404,0.5063 5.35404,0.5063 2.05185,-1.50041 c 3.51158,-2.56782 7.30186,-5.19716 7.30186,-5.06533 0,0.0693 -1.15111,1.76278 -2.55803,3.76324 -1.53037,2.176 -2.46902,3.78122 -2.33647,3.99569 0.12186,0.19717 1.38595,2.04638 2.8091,4.10934 4.17036,6.04529 4.27474,6.2515 2.19353,4.33361 z m -13.21258,-25.10775 c 0.30022,-1.26194 0.912,-9.81746 0.71602,-10.01344 -0.18128,-0.18127 -5.03056,-0.70683 -11.00346,-1.19253 -1.39804,-0.11369 -2.88305,-0.31037 -3.30001,-0.43708 -0.64233,-0.1952 -0.55194,-0.24243 0.5919,-0.30925 9.64244,-0.56338 12.30619,-0.84736 13.69005,-1.45951 0.75634,-0.33456 1.4959,-0.53368 1.64348,-0.44247 0.24177,0.14942 4.46215,-3.9648 4.46956,-4.35712 0.002,-0.09 0.25801,-1.42713 0.56958,-2.97143 l 0.56649,-2.80783 -0.7275,-2.71841 c -0.40012,-1.49513 -0.68532,-2.84494 -0.63377,-2.99959 0.17028,-0.51085 2.27537,2.11882 2.63162,3.28742 0.19218,0.63043 0.406,2.71514 0.47514,4.63268 l 0.12572,3.48646 -1.92053,4.46355 c -1.05628,2.45495 -2.98237,6.35773 -4.28018,8.67285 -1.29781,2.31511 -2.55122,4.57636 -2.78535,5.025 -0.51497,0.98677 -1.05173,1.0779 -0.82876,0.1407 z m 125.94728,105.29304 c 2.8001,-2.48028 7.2513,-6.30253 10.0868,-8.66136 l 3.1173,-2.59331 4.4015,-0.83127 c 4.1227,-0.7786 4.6391,-0.95554 8.1516,-2.79317 3.1713,-1.65915 4.0651,-2.29398 5.7923,-4.11381 l 2.0423,-2.15191 1.0231,-4.31161 1.023,-4.3116 -1.0528,-3.18784 c -0.9149,-2.77045 -1.2278,-3.35189 -2.3896,-4.44083 l -1.3369,-1.25299 -0.9757,0.7331 c -0.5367,0.40321 -1.9207,1.20164 -3.0757,1.77429 -1.853,0.91872 -2.5587,1.08453 -6,1.40985 -2.145,0.20277 -5.7856,0.627 -8.0901,0.94271 l -4.1901,0.57403 -4.9599,2.74493 c -2.728,1.50971 -7.7292,4.67028 -11.1138,7.0235 l -6.1538,4.27858 -4.25584,0.83646 c -4.09412,0.80467 -4.37325,0.82201 -7.34616,0.45637 -1.69969,-0.20905 -3.36034,-0.44176 -3.69034,-0.51714 -0.507,-0.1158 -0.89084,0.43348 -2.47653,3.54397 -1.87593,3.67979 -1.87665,3.68223 -2.20429,7.38784 -0.29145,3.29626 -0.19002,6.34317 0.21116,6.34317 0.079,0 0.71194,-0.29011 1.40662,-0.64468 1.23235,-0.62901 1.38335,-0.63609 6.21304,-0.29135 6.21437,0.44358 6.14045,0.43192 11.55004,1.82118 4.1675,1.0703 4.8213,1.15735 8.85,1.1783 l 4.35,0.0226 1.0928,-0.96804 z M 178.72292,278.43696 c 3.25952,-0.33251 3.37361,-0.37088 9.3,-3.12816 3.3,-1.53533 7.2825,-3.35999 8.85,-4.05479 1.5675,-0.69481 4.21419,-1.99277 5.88154,-2.88437 l 3.03154,-1.62109 5.34774,0 c 5.23202,0 5.42838,0.0231 9.07477,1.06869 2.04986,0.58778 3.76409,1.02653 3.80939,0.975 0.0453,-0.0515 0.23969,-3.11549 0.43197,-6.80879 l 0.34959,-6.71509 -4.43827,-4.46995 c -2.44105,-2.45847 -4.48226,-4.59742 -4.53604,-4.75321 -0.0538,-0.1558 0.95873,0.2016 2.25,0.79422 1.29128,0.59262 3.33329,1.53001 4.53781,2.08309 l 2.19004,1.00561 0.54883,-1.26479 c 0.30185,-0.69563 0.90259,-2.05783 1.33496,-3.02711 0.43237,-0.96928 0.78613,-1.80135 0.78613,-1.84905 0,-0.0477 -1.21822,-1.00965 -2.70716,-2.13767 l -2.70716,-2.05095 -0.87821,-2.85 c -1.6814,-5.45656 -1.64467,-5.09712 -1.09773,-10.74195 l 0.50066,-5.16726 1.95774,-4.27039 c 1.33087,-2.90301 2.2658,-4.54028 2.9198,-5.11322 0.73874,-0.64718 5.11176,-3.8927 7.18734,-5.33421 0.14019,-0.0974 -0.3594,-2.62317 -1.11019,-5.6129 -1.32323,-5.26918 -1.36509,-5.57636 -1.36509,-10.01735 l 0,-4.58148 1.70529,-3.60562 c 1.89041,-3.99705 2.01004,-4.16647 5.90169,-8.35769 1.50758,-1.62363 2.809,-3.0521 2.89204,-3.17437 0.083,-0.12228 1.79876,-1.2039 3.81272,-2.40362 l 3.66174,-2.1813 -1.26174,-2.44432 -1.26174,-2.44432 -0.15,-5.09635 c -0.13213,-4.4892 -0.21084,-5.10801 -0.6607,-5.19424 -0.28088,-0.0538 -3.29457,1.36201 -6.69708,3.14634 -5.14742,2.6994 -6.29603,3.42246 -6.8393,4.30541 -0.35911,0.58364 -2.36288,3.56169 -4.45282,6.61789 l -3.7999,5.55672 -2.86491,0.84603 c -5.90266,1.74311 -5.61646,1.5862 -10.33979,5.66889 l -4.43203,3.83088 -1.13205,4.20889 c -0.62264,2.3149 -1.08692,4.24939 -1.03174,4.29887 0.0552,0.0495 1.22585,-1.23654 2.60149,-2.85784 2.24139,-2.64167 2.81781,-3.12685 5.55,-4.67158 1.67686,-0.94807 3.48758,-1.98148 4.02383,-2.29647 1.74245,-1.0235 1.03997,-0.31599 -2.4,2.41717 l -3.375,2.68154 -1.7469,4.35454 -1.7469,4.35454 0.8469,1.59333 c 1.43687,2.70327 1.36183,2.66237 5.88949,3.20985 l 4.06765,0.49186 3.36608,-1.56194 c 1.85134,-0.85906 3.42156,-1.50645 3.48939,-1.43862 0.0678,0.0678 -0.32422,1.00164 -0.8712,2.07517 -0.78452,1.53973 -1.60668,2.49633 -3.89372,4.53049 l -2.89922,2.57863 -4.94692,0 -4.94693,0 -2.76917,3.075 c -1.52305,1.69125 -2.95286,3.35402 -3.17735,3.69504 -0.2245,0.34102 -1.02264,2.70352 -1.77363,5.25 l -1.36545,4.62996 0.95358,5.7 0.95358,5.7 1.53536,1.42191 c 0.84445,0.78206 2.84723,2.46956 4.45062,3.75 1.60339,1.28045 2.91964,2.41973 2.925,2.53175 0.005,0.11201 -1.5976,-0.56299 -3.56212,-1.5 l -3.57187,-1.70366 -2.57758,-3.3 c -1.41768,-1.815 -2.57784,-3.57795 -2.57814,-3.91766 -3e-4,-0.33972 -0.1693,-0.83133 -0.37555,-1.09249 -0.36256,-0.45906 -7.33355,-2.63985 -8.43842,-2.63985 -0.29953,0 -2.27742,0.54631 -4.3953,1.21402 -3.77096,1.18888 -3.86563,1.24014 -4.57148,2.475 -0.39644,0.69354 -1.0361,2.07098 -1.42149,3.06098 -0.38539,0.99 -0.93159,2.1375 -1.21377,2.55 -0.28219,0.4125 -1.02257,1.75178 -1.64529,2.97617 l -1.13221,2.22618 0.87148,0.69733 c 0.47931,0.38354 0.94258,0.69801 1.02949,0.69883 0.0869,9e-4 0.0628,1.04774 -0.0537,2.32649 -0.11642,1.27875 -0.22127,3.57375 -0.23301,5.1 -0.0244,3.16971 -0.1555,3.0594 2.74354,2.30819 0.99082,-0.25675 1.82801,-0.4255 1.86044,-0.375 0.0324,0.0505 0.47925,0.63769 0.99297,1.30488 0.90166,1.17103 1.04659,1.23671 4.18286,1.89552 2.86486,0.6018 8.64657,2.1568 14.87385,4.00036 1.11375,0.32972 2.025,0.72391 2.025,0.87598 0,0.15207 -0.30375,0.20794 -0.675,0.12415 -0.83094,-0.18755 -7.22313,-0.9955 -9.675,-1.22289 -0.99,-0.0918 -2.1375,-0.24059 -2.55,-0.33062 -2.57469,-0.56191 -4.2852,-0.64134 -5.4845,-0.25468 -0.69603,0.2244 -2.03106,0.62042 -2.96675,0.88003 l -1.70125,0.47203 -1.37375,2.58239 c -1.34994,2.53762 -1.37375,2.63107 -1.37375,5.39082 0,2.80502 -0.001,2.80898 -0.88298,3.26503 -0.48563,0.25113 -0.94025,0.35585 -1.01025,0.23271 -0.07,-0.12315 -0.62893,-1.80183 -1.24206,-3.7304 l -1.1148,-3.5065 0.29141,-3.2435 c 0.16027,-1.78393 0.25036,-3.28843 0.2002,-3.34334 -0.0502,-0.0549 -1.01377,0.61285 -2.14136,1.4839 -1.12759,0.87106 -2.09212,1.61044 -2.1434,1.64307 -0.0513,0.0326 -0.48193,1.66371 -0.957,3.62462 l -0.86377,3.56528 0.85414,3.83862 c 0.46978,2.11124 0.90043,3.88034 0.957,3.93132 0.0566,0.051 1.11537,0.59822 2.35287,1.21608 1.2375,0.61787 2.34918,1.27494 2.4704,1.46017 0.12123,0.18523 0.22248,0.2323 0.225,0.10461 0.002,-0.12769 0.51085,0.0317 1.1296,0.35417 0.61875,0.32249 1.395,0.53384 1.725,0.46969 0.33,-0.0641 2.085,-0.26813 3.9,-0.45328 z m 22.35,-18.579 c 0,-0.15982 0.2025,-0.21288 0.45,-0.1179 0.2475,0.095 0.45,0.22574 0.45,0.29058 0,0.0649 -0.2025,0.11791 -0.45,0.11791 -0.2475,0 -0.45,-0.13077 -0.45,-0.29059 z m -9.88167,-38.90979 3.16834,-0.18353 1.00444,-4.98305 c 0.55245,-2.74067 1.14021,-5.25304 1.30613,-5.58304 0.16592,-0.33 1.57303,-2.33916 3.12691,-4.4648 1.55388,-2.12564 2.88897,-4.03093 2.96689,-4.23397 0.13044,-0.33993 -0.61256,-5.31592 -0.97448,-6.52623 -0.119,-0.39794 -0.48044,-0.525 -1.49342,-0.525 -1.13683,0 -2.0037,0.38955 -5.80453,2.60842 l -4.46811,2.60843 -1.36182,3.31657 c -0.74901,1.82412 -2.11766,5.13908 -3.04145,7.36658 -0.92379,2.2275 -2.13455,5.65602 -2.69057,7.61892 l -1.01094,3.56893 3.05214,-0.20235 c 1.67868,-0.11129 4.47789,-0.28494 6.22047,-0.38588 z m 213.9567,-6.18009 c 0.4537,-0.86847 0.825,-1.69429 0.825,-1.83514 0,-0.14085 -1.4045,-2.23121 -3.121,-4.64524 l -3.1209,-4.38915 -1.3638,-5.20876 c -1.2676,-4.84176 -1.5219,-5.48644 -3.6088,-9.15 l -2.2452,-3.94124 -5.1951,-3.79453 c -5.1493,-3.76098 -9.1874,-6.55547 -9.4729,-6.55547 -0.082,0 -1.2448,-0.66986 -2.5852,-1.48856 l -2.43714,-1.48856 -6.58873,-0.0447 -6.58875,-0.0447 -0.82606,3.85829 c -0.45433,2.12205 -0.83065,4.00886 -0.83626,4.19289 -0.006,0.18404 0.56032,1.03595 1.25761,1.89314 0.85379,1.04958 1.71101,2.70374 2.625,5.06539 l 1.35719,3.50686 3.6,1.80453 c 1.98,0.99249 5.01537,2.411 6.74524,3.15223 2.4879,1.06601 3.2717,1.55057 3.75,2.3183 0.3326,0.53382 0.8748,1.03624 1.2048,1.11648 4.4796,1.08921 5.6678,1.3406 5.7846,1.22387 0.076,-0.0759 0.1158,-1.45487 0.089,-3.06428 l -0.049,-2.92618 -2.0871,-3.95013 c -2.0392,-3.85957 -2.1438,-3.9934 -4.5619,-5.83702 -1.3611,-1.03779 -2.592,-1.98855 -2.7353,-2.1128 -0.2798,-0.24268 1.8953,-3.03311 2.2628,-2.90299 0.1212,0.0429 2.0152,1.78247 4.209,3.86572 l 3.9887,3.78772 1.8602,4.61228 c 1.5216,3.77281 1.9281,5.15338 2.2331,7.58533 l 0.373,2.97306 2.6328,3.0623 c 1.448,1.68427 3.4456,4.46389 4.4391,6.17694 l 1.8063,3.11464 2.4777,0.81216 c 1.3628,0.44669 2.6128,0.81762 2.7778,0.82429 0.165,0.007 0.6712,-0.69845 1.125,-1.56692 z M 365.77291,168.2968 c 3.2175,-0.52365 5.95877,-1.04425 6.09172,-1.15688 0.13294,-0.11264 -0.37943,-1.75696 -1.1386,-3.65405 -1.23338,-3.08211 -1.66183,-3.78125 -4.02519,-6.56829 l -2.64489,-3.11903 -4.46652,-1.26755 -4.46652,-1.26756 -2.30514,0.6727 c -1.26783,0.36998 -2.37484,0.74239 -2.46003,0.82758 -0.0852,0.0852 0.16357,1.40647 0.5528,2.93618 l 0.70768,2.78129 3.15314,2.98806 3.15314,2.98806 0.5176,2.39562 c 0.3855,1.78418 0.64053,2.39566 0.99921,2.39579 0.26488,1e-4 3.1141,-0.42826 6.3316,-0.95192 z"
       style="fill:#a0b7ff;fill-opacity:1;filter:url(#filter4266)">
		<animate id="animation3"
             attributeName="fill"
             from="#a0b7ff" to="#a0f7fe" dur="3.5s" fill="freeze"
             begin="0s;animation5.end" />
		<animate id="animation4"
             attributeName="fill"
             from="#a0f7fe" to="#ffa500" dur="3.5s" fill="freeze"
             begin="animation3.end" />
		<animate id="animation5"
             attributeName="fill"
             from="#ffa500" to="#a0b7ff" dur="3.5s" fill="freeze"
             begin="animation4.end" />
	</path>
  </g>
</svg>
